<?xml version="1.0" encoding="UTF-8" standalone="no" ?>
<!DOCTYPE svg PUBLIC "-//W3C//DTD SVG 1.1//EN" "http://www.w3.org/Graphics/SVG/1.1/DTD/svg11.dtd">
<svg xmlns="http://www.w3.org/2000/svg" xmlns:xlink="http://www.w3.org/1999/xlink" version="1.1" width="200" height="200" viewBox="0 0 200 200" xml:space="preserve">
<desc>Created with Fabric.js 4.6.0</desc>
<defs>
</defs>
<g transform="matrix(5.05 0 0 5.05 99.94 99.94)" id="aFjcJKt4ya9vraKz_rxPA"  >
<path style="stroke: rgb(34,91,61); stroke-width: 0; stroke-dasharray: none; stroke-linecap: butt; stroke-dashoffset: 0; stroke-linejoin: miter; stroke-miterlimit: 4; fill: rgb(118,171,189); fill-rule: nonzero; opacity: 1;" vector-effect="non-scaling-stroke"  transform=" translate(0, 0)" d="M -19.75512 -19.75512 L 19.755129999999998 -19.75512 L 19.755129999999998 19.755129999999998 L -19.75512 19.755129999999998 z" stroke-linecap="round" />
</g>
<g transform="matrix(0.56 0 0 1.74 49.58 70.39)" id="8Jp7hjRLHr9D8CqbPaAqa"  >
<path style="stroke: rgb(131,11,231); stroke-width: 0; stroke-dasharray: none; stroke-linecap: butt; stroke-dashoffset: 0; stroke-linejoin: miter; stroke-miterlimit: 4; fill: rgb(255,255,255); fill-rule: nonzero; opacity: 1;" vector-effect="non-scaling-stroke"  transform=" translate(0, 0)" d="M -20.1581 -14.3922 C -20.1581 -17.576620000000002 -12.092680000000001 -20.1581 -2.1434800000000003 -20.1581 L 2.73492 -20.1581 L 2.73492 -20.1581 C 12.357479999999999 -20.1581 20.15811 -17.66137 20.15811 -14.581500000000002 L 20.15811 14.232499999999998 L 20.15811 14.232499999999998 C 20.15811 17.505119999999998 11.8693 20.158099999999997 1.6445500000000024 20.158099999999997 L -2.2359599999999977 20.158099999999997 L -2.2359599999999977 20.158099999999997 C -12.134079999999997 20.158099999999997 -20.158089999999998 17.589869999999998 -20.158089999999998 14.421799999999998 z" stroke-linecap="round" />
</g>
<g transform="matrix(0.56 0 0 1.74 150.3 70.39)" id="lMA3y7T-huJ1UD4ayz-Df"  >
<path style="stroke: rgb(131,11,231); stroke-width: 0; stroke-dasharray: none; stroke-linecap: butt; stroke-dashoffset: 0; stroke-linejoin: miter; stroke-miterlimit: 4; fill: rgb(255,255,255); fill-rule: nonzero; opacity: 1;" vector-effect="non-scaling-stroke"  transform=" translate(0, 0)" d="M -20.1581 -14.3922 C -20.1581 -17.576620000000002 -12.092680000000001 -20.1581 -2.1434800000000003 -20.1581 L 2.73492 -20.1581 L 2.73492 -20.1581 C 12.357479999999999 -20.1581 20.15811 -17.66137 20.15811 -14.581500000000002 L 20.15811 14.232499999999998 L 20.15811 14.232499999999998 C 20.15811 17.505119999999998 11.8693 20.158099999999997 1.6445500000000024 20.158099999999997 L -2.2359599999999977 20.158099999999997 L -2.2359599999999977 20.158099999999997 C -12.134079999999997 20.158099999999997 -20.158089999999998 17.589869999999998 -20.158089999999998 14.421799999999998 z" stroke-linecap="round" />
</g>
<g transform="matrix(3.41 0 0 3.61 99.94 148.97)" id="9gy4PAX83vliAl-G5rYp0"  >
<path style="stroke: rgb(255,255,255); stroke-width: 0; stroke-dasharray: none; stroke-linecap: butt; stroke-dashoffset: 0; stroke-linejoin: miter; stroke-miterlimit: 4; fill: rgb(255,255,255); fill-rule: nonzero; opacity: 1;" vector-effect="non-scaling-stroke"  transform=" translate(-14.75, -5.76)" d="M 14.7479 11.5123 C 7.629379999999999 11.5123 1.6488300000000002 6.6102799999999995 0 0 C 0.17791 0.02742 0.36016 0.04165 0.54575 0.04165 L 28.95004 0.04165 C 29.135630000000003 0.04165 29.317890000000002 0.02742 29.495810000000002 0 C 27.846980000000002 6.61028 21.86643 11.5123 14.747910000000003 11.5123 z" stroke-linecap="round" />
</g>
</svg>